<svg xmlns="http://www.w3.org/2000/svg" xml:space="preserve" viewBox="0 0 511.999 511.999" fill="#dee2e6"><path d="M123.259 85.334 0 208.592l75.851 75.852L199.11 161.185l-75.851-75.851zM18.964 208.592 123.26 104.296l56.889 56.888L75.852 265.481l-56.888-56.889zM270.222 232.297l-9.481 9.48 94.814 94.815-14.222 14.222-85.334-85.333-9.481 9.481 94.815 94.816 33.184-33.186zM327.11 365.037l-9.481 9.481-85.334-85.333-9.481 9.481 94.815 94.814 18.962-18.962zM303.406 388.74l-9.48 9.481-9.482-9.481-9.481 9.481 18.963 18.963 18.961-18.963zM134.986 290.683v-18.408l-19.669-20.92-9.881 9.288 15.988 17.007v19.516l14.272 11.518 8.516-10.555zM279.703 412.444l-9.481 9.481-9.482-9.481-9.481 9.481 18.963 18.964 18.962-18.964z"/><path d="m37.924 208.585 9.48-9.481 9.482 9.481-9.48 9.481zM383.999 71.11l-75.852 75.852 128 128 75.852-75.852-128-128zm-56.889 75.853 56.889-56.889 109.037 109.037L436.148 256 327.11 146.963z"/><path d="m455.105 199.118 9.482-9.482 9.48 9.48-9.482 9.482zM331.853 227.555c-5.065 5.064-11.801 7.854-18.964 7.854-7.163 0-13.898-2.791-18.964-7.855l-23.704-23.703-42.667 42.667c-5.065 5.064-11.8 7.854-18.963 7.854-4.871 0-9.543-1.29-13.628-3.709l63.813-63.813h28.444l25.667-25.667-9.481-9.481-21.741 21.74h-28.444l-77.817 77.817 4.741 4.74c7.843 7.843 18.144 11.763 28.444 11.763 10.301 0 20.602-3.921 28.444-11.763l33.185-33.185 14.223 14.221c7.597 7.598 17.699 11.782 28.444 11.782s20.847-4.184 28.444-11.782l-9.476-9.48zM194.371 175.425l9.481-9.48 23.7 23.7-9.48 9.48zM393.282 241.714l-16.269 16.211v18.976l-26.364 26.461 9.607 9.572 30.319-30.429v-18.949l12.279-12.235zM180.148 274.963l-56.889 56.889 104.24 104.24 56.889-56.889-104.24-104.24zm-37.926 56.888 37.925-37.925 14.222 14.222-37.925 37.925-14.222-14.222zm23.704 23.704 37.925-37.925 14.194 14.193-37.925 37.925-14.194-14.193zm23.704 23.704 37.925-37.925 14.166 14.166-37.925 37.925-14.166-14.166zm37.869 37.869-14.194-14.194 37.925-37.925 14.194 14.194-37.925 37.925z"/></svg>