<svg xmlns="http://www.w3.org/2000/svg" xml:space="preserve" fill="#dee2e6" width="800" height="800" viewBox="0 0 32 32"><path d="M24 31.36c-4.059 0-7.36-3.302-7.36-7.36 0-.214.009-.428.028-.64H5v-.72h11.768a7.287 7.287 0 0 1 .69-2.002c.231-.455.51-.884.829-1.277H5v-.721h13.955a7.32 7.32 0 0 1 .958-.758A7.306 7.306 0 0 1 24 16.64c4.059 0 7.36 3.301 7.36 7.36s-3.301 7.36-7.36 7.36zm0-14c-1.32 0-2.596.388-3.688 1.121a6.523 6.523 0 0 0-2.214 2.485 6.604 6.604 0 0 0-.738 3.033c0 3.661 2.979 6.64 6.64 6.64s6.64-2.979 6.64-6.64S27.661 17.36 24 17.36zm-7 14H1A.36.36 0 0 1 .64 31V1A.36.36 0 0 1 1 .64h18c.096 0 .188.038.255.105l6 6A.363.363 0 0 1 25.36 7v8h-.72V7.36H19a.36.36 0 0 1-.36-.36V1.36H1.36v29.28H17v.72zm2.36-24.72h4.771L19.36 1.869V6.64zm5 20.86h-.72v-1.14H22v-.72h3a.64.64 0 0 0 0-1.28h-2c-.75 0-1.36-.61-1.36-1.36s.61-1.36 1.36-1.36h.64V20.5h.721v1.14H26v.721h-3a.64.64 0 0 0 0 1.28h2c.75 0 1.36.61 1.36 1.36s-.61 1.36-1.36 1.36h-.64V27.5zM14 27.36H5v-.72h9v.72zm7-12H5v-.72h16v.72zm0-4H5v-.72h16v.72z"/></svg>