<svg xmlns="http://www.w3.org/2000/svg" xml:space="preserve" width="800" height="800" fill="#dee2e6" viewBox="0 0 512 512"><path d="M449.362 32.681h-18.519c-4.513 0-8.17 3.657-8.17 8.17s3.657 8.17 8.17 8.17h10.349V495.66l-370.383-.001V49.021h34.86v8.17c0 13.515 10.996 24.511 24.511 24.511 13.515 0 24.511-10.996 24.511-24.511v-8.17h34.86v8.17c0 13.515 10.996 24.511 24.511 24.511 13.515 0 24.511-10.996 24.511-24.511v-8.17h34.86v8.17c0 13.515 10.996 24.511 24.511 24.511s24.511-10.996 24.511-24.511v-8.17h34.86v8.17c0 13.515 10.996 24.511 24.511 24.511s24.511-10.996 24.511-24.511v-32.68C406.332 10.996 395.336 0 381.821 0S357.31 10.996 357.31 24.511v8.17h-34.86v-8.17C322.451 10.996 311.455 0 297.94 0s-24.51 10.996-24.51 24.511v8.17h-34.86v-8.17C238.57 10.996 227.574 0 214.06 0c-13.515 0-24.511 10.996-24.511 24.511v8.17h-34.86v-8.17C154.689 10.996 143.693 0 130.179 0c-13.515 0-24.511 10.996-24.511 24.511v8.17h-43.03a8.169 8.169 0 0 0-8.17 8.17v462.978a8.18 8.18 0 0 0 2.392 5.778c2.393 2.392 3.724 2.392 10.121 2.392l382.381.001a8.169 8.169 0 0 0 8.17-8.17V40.851a8.169 8.169 0 0 0-8.17-8.17zm-75.711-8.17c0-4.506 3.665-8.17 8.17-8.17 4.506 0 8.17 3.665 8.17 8.17v32.681c0 4.506-3.665 8.17-8.17 8.17-4.506 0-8.17-3.665-8.17-8.17V24.511zm-83.881 0c0-4.506 3.665-8.17 8.17-8.17 4.506 0 8.17 3.665 8.17 8.17v32.681c0 4.506-3.665 8.17-8.17 8.17-4.506 0-8.17-3.665-8.17-8.17V24.511zm-83.881 0c0-4.506 3.665-8.17 8.17-8.17s8.17 3.665 8.17 8.17v32.681c0 4.506-3.665 8.17-8.17 8.17s-8.17-3.665-8.17-8.17V24.511zm-83.88 0c0-4.506 3.665-8.17 8.17-8.17 4.506 0 8.17 3.665 8.17 8.17v32.681c0 4.506-3.665 8.17-8.17 8.17-4.506 0-8.17-3.665-8.17-8.17V24.511z"/><path d="M362.757 302.298H149.243c-4.513 0-8.17 3.657-8.17 8.17s3.657 8.17 8.17 8.17h213.515c4.513 0 8.17-3.657 8.17-8.17s-3.657-8.17-8.171-8.17zM362.757 258.723H149.243c-4.513 0-8.17 3.657-8.17 8.17s3.657 8.17 8.17 8.17h213.515c4.513 0 8.17-3.657 8.17-8.17s-3.657-8.17-8.171-8.17zM362.757 215.149H149.243c-4.513 0-8.17 3.657-8.17 8.17s3.657 8.17 8.17 8.17h213.515c4.513 0 8.17-3.657 8.17-8.17s-3.657-8.17-8.171-8.17zM362.757 345.872H149.243c-4.513 0-8.17 3.657-8.17 8.17s3.657 8.17 8.17 8.17h213.515c4.513 0 8.17-3.657 8.17-8.17s-3.657-8.17-8.171-8.17zM281.055 389.447H149.243a8.169 8.169 0 0 0-8.17 8.17 8.169 8.169 0 0 0 8.17 8.17h131.813a8.169 8.169 0 0 0 8.17-8.17 8.17 8.17 0 0 0-8.171-8.17zM416.681 108.936H95.297a8.17 8.17 0 0 0-8.17 8.17 8.169 8.169 0 0 0 8.17 8.17H416.68a8.169 8.169 0 0 0 8.17-8.17 8.167 8.167 0 0 0-8.169-8.17z"/></svg>