<svg xmlns="http://www.w3.org/2000/svg" width="800" height="800" viewBox="0 0 24 24">
    <defs>
        <style>
            .cls-1{
                fill:none;
                stroke:#dee2e6;
                stroke-miterlimit:10;
                stroke-width:1px
            }
        </style>
    </defs>
    <g id="roll_brush" data-name="roll brush">
        <path d="M9.11 17.8h3.35a1.44 1.44 0 0 0 1.44-1.44 1.43 1.43 0 0 0-1.44-1.44h-1a1.44 1.44 0 0 1-1.44-1.44A1.45 1.45 0 0 1 11.5 12h3.36M11.98 9.17v2.87M11.98 17.8v2.87" class="cls-1"/>
        <path d="M1.43 1.49h21.1v21.1H1.43z" class="cls-1"/>
        <path d="M22.53 7.25H1.43V1.49h21.1v5.76zM4.31 4.37h1.92M8.15 4.37h1.91M11.98 4.37h1.92" class="cls-1"/>
    </g>
</svg>