<?xml version="1.0" encoding="iso-8859-1"?>
<!-- Uploaded to: SVG Repo, www.svgrepo.com, Generator: SVG Repo Mixer Tools -->
<svg fill="#000000" height="800px" width="800px" version="1.1" id="Layer_1" xmlns="http://www.w3.org/2000/svg" xmlns:xlink="http://www.w3.org/1999/xlink" 
	 viewBox="0 0 512 512" xml:space="preserve">
<g>
	<g>
		<path d="M392.533,298.667c-23.526,0-42.667,19.14-42.667,42.667c0,23.526,19.14,42.667,42.667,42.667
			c23.526,0,42.667-19.14,42.667-42.667C435.2,317.807,416.06,298.667,392.533,298.667z M392.533,366.933
			c-14.114,0-25.6-11.486-25.6-25.6c0-14.114,11.486-25.6,25.6-25.6c14.114,0,25.6,11.486,25.6,25.6
			C418.133,355.447,406.647,366.933,392.533,366.933z"/>
	</g>
</g>
<g>
	<g>
		<path d="M509.5,292.634l-6.033-6.033V136.533c0-4.71-3.814-8.533-8.533-8.533h-384c-2.782,0-5.393,1.357-6.989,3.644
			l-59.068,84.378c-17.391,14.43-33.562,33.135-36.139,70.374l-6.229,6.238C0.896,294.229,0,296.405,0,298.667v17.067
			c0,2.261,0.896,4.437,2.5,6.033l6.033,6.033v13.534c0,4.71,3.814,8.533,8.533,8.533H51.2c4.719,0,8.533-3.823,8.533-8.533
			c0-32.939,26.803-59.733,59.733-59.733s59.733,26.795,59.733,59.733c0,4.71,3.814,8.533,8.533,8.533h136.533
			c4.719,0,8.533-3.823,8.533-8.533c0-32.939,26.803-59.733,59.733-59.733c32.93,0,59.733,26.795,59.733,59.733
			c0,4.71,3.814,8.533,8.533,8.533h34.133c4.719,0,8.533-3.823,8.533-8.533v-13.534l6.033-6.033c1.604-1.596,2.5-3.772,2.5-6.033
			v-17.067C512,296.405,511.104,294.229,509.5,292.634z M115.379,145.067h72.354v68.267H67.593L115.379,145.067z M494.933,312.201
			l-6.033,6.033c-1.604,1.596-2.5,3.772-2.5,6.033v8.533h-17.545c-4.258-38.349-36.855-68.267-76.322-68.267
			c-39.467,0-72.064,29.918-76.322,68.267H195.789c-4.258-38.349-36.855-68.267-76.322-68.267S47.403,294.451,43.145,332.8H25.6
			v-8.533c0-2.261-0.896-4.437-2.5-6.033l-6.033-6.033v-10.001l6.033-6.033c1.51-1.502,2.389-3.516,2.492-5.641
			c0.299-6.494,1.101-12.194,2.21-17.459h14.865c4.719,0,8.533-3.823,8.533-8.533S47.386,256,42.667,256h-9.165
			c4.958-10.18,11.989-18.099,20.787-25.6h141.978c4.719,0,8.533-3.823,8.533-8.533v-76.8h281.6V256h-8.533
			c-4.719,0-8.533,3.823-8.533,8.533s3.814,8.533,8.533,8.533h8.533v17.067c0,2.261,0.896,4.437,2.5,6.033l6.033,6.033V312.201z"/>
	</g>
</g>
<g>
	<g>
		<path d="M119.467,298.667c-23.526,0-42.667,19.14-42.667,42.667C76.8,364.86,95.94,384,119.467,384s42.667-19.14,42.667-42.667
			C162.133,317.807,142.993,298.667,119.467,298.667z M119.467,366.933c-14.114,0-25.6-11.486-25.6-25.6
			c0-14.114,11.486-25.6,25.6-25.6s25.6,11.486,25.6,25.6C145.067,355.447,133.581,366.933,119.467,366.933z"/>
	</g>
</g>
</svg>