<?xml version='1.0' encoding='iso-8859-1'?>
<!-- Uploaded to: SVG Repo, www.svgrepo.com, Generator: SVG Repo Mixer Tools -->
<svg fill="#000000" height="800px" width="800px" version="1.1" xmlns="http://www.w3.org/2000/svg" viewBox="0 0 470 470" xmlns:xlink="http://www.w3.org/1999/xlink" enable-background="new 0 0 470 470">
  <g>
    <path d="m409.326,211.562c0-4.142-3.357-7.5-7.5-7.5h-333.652c-4.143,0-7.5,3.358-7.5,7.5s3.357,7.5 7.5,7.5h333.652c4.143,0 7.5-3.358 7.5-7.5z"/>
    <path d="m116.411,362.655h-48.911c-4.143,0-7.5,3.358-7.5,7.5s3.357,7.5 7.5,7.5h48.911c4.143,0 7.5-3.358 7.5-7.5s-3.357-7.5-7.5-7.5z"/>
    <path d="m313.589,362.655h-157.178c-4.143,0-7.5,3.358-7.5,7.5s3.357,7.5 7.5,7.5h157.178c4.143,0 7.5-3.358 7.5-7.5s-3.358-7.5-7.5-7.5z"/>
    <path d="m402.5,362.655h-48.911c-4.143,0-7.5,3.358-7.5,7.5s3.357,7.5 7.5,7.5h48.911c4.143,0 7.5-3.358 7.5-7.5s-3.357-7.5-7.5-7.5z"/>
    <path d="m296.304,299.978l-7.914,21.131h-106.78l-7.914-21.131c-1.452-3.878-5.772-5.845-9.654-4.393-3.879,1.453-5.846,5.775-4.393,9.654l9.738,26c1.097,2.929 3.896,4.869 7.023,4.869h117.178c3.127,0 5.927-1.94 7.023-4.869l9.738-26c1.453-3.879-0.514-8.202-4.393-9.654-3.879-1.454-8.2,0.513-9.652,4.393z"/>
    <path d="M462.5,154.062c-4.143,0-7.5,3.358-7.5,7.5v42.5h-16.431L413.401,86.019c-0.005-0.024-0.01-0.048-0.016-0.073   l-12.889-60.449C397.45,11.2,383.611,0,368.992,0H101.008C86.39,0,72.551,11.199,69.502,25.497L56.61,85.963   c-0.01,0.044-25.179,118.099-25.179,118.099H15v-42.5c0-4.142-3.357-7.5-7.5-7.5s-7.5,3.358-7.5,7.5v50c0,4.142,3.357,7.5,7.5,7.5   H30V390.2c0,12.563,8.472,23.178,20,26.452V462.5c0,4.142,3.357,7.5,7.5,7.5h68.911c4.143,0,7.5-3.358,7.5-7.5v-22.25   c0-4.142-3.357-7.5-7.5-7.5s-7.5,3.358-7.5,7.5V455H65v-37.3h340V455h-53.911v-14.75c0-4.142-3.357-7.5-7.5-7.5s-7.5,3.358-7.5,7.5   v22.25c0,4.142,3.357,7.5,7.5,7.5H412.5c4.143,0,7.5-3.358,7.5-7.5v-45.848c11.528-3.274,20-13.889,20-26.452V219.062h22.5   c4.143,0,7.5-3.358,7.5-7.5v-50C470,157.419,466.643,154.062,462.5,154.062z M84.172,28.625C85.72,21.367,93.587,15,101.008,15   h267.984c7.421,0,15.288,6.366,16.835,13.625L396.781,80H73.218L84.172,28.625z M412.5,402.7h-355c-6.893,0-12.5-5.607-12.5-12.5   v-54.091h91.411c2.459,0,4.763-1.206,6.164-3.227c1.4-2.021,1.722-4.601,0.859-6.904l-9.738-26   c-3.975-10.607-15.959-18.916-27.285-18.916H72.5c-4.143,0-7.5,3.358-7.5,7.5s3.357,7.5,7.5,7.5h33.911   c5.129,0,11.438,4.375,13.238,9.178l5.943,15.869H45V212.352L70.02,95h329.959L425,212.352v108.756h-80.593l5.943-15.869   c1.8-4.804,8.109-9.178,13.238-9.178H397.5c4.143,0,7.5-3.358,7.5-7.5s-3.357-7.5-7.5-7.5h-33.911   c-11.326,0-23.311,8.309-27.285,18.916l-9.738,26c-0.862,2.303-0.541,4.883,0.859,6.904c1.401,2.021,3.705,3.227,6.164,3.227H425   V390.2C425,397.092,419.393,402.7,412.5,402.7z"/>
  </g>
</svg>