<?xml version="1.0" encoding="iso-8859-1"?>
<!-- Uploaded to: SVG Repo, www.svgrepo.com, Generator: SVG Repo Mixer Tools -->
<svg fill="#000000" height="800px" width="800px" version="1.1" id="Layer_1" xmlns="http://www.w3.org/2000/svg" xmlns:xlink="http://www.w3.org/1999/xlink" 
	 viewBox="0 0 508 508" xml:space="preserve">
<g>
	<g>
		<path d="M384.2,246.3l-39.5-79.6c-2.4-4.8-7.3-7.8-12.6-7.8H70.5c-7.8,0-14.1,6.3-14.1,14.1v79.6c0,7.8,6.3,14.1,14.1,14.1h301
			c4.9,0,9.4-2.5,12-6.7C386.1,255.9,386.3,250.7,384.2,246.3z M143.9,238.4H84.6V187h59.3V238.4z M241.6,238.4h-69.5V187h69.5
			V238.4z M269.8,238.4V187h53.5l25.5,51.4H269.8z"/>
	</g>
</g>
<g>
	<g>
		<path d="M450.2,206.5h-22.8l-47.7-96.3c-2.4-4.8-7.3-7.8-12.6-7.8h-353c-7.8,0-14.1,6.3-14.1,14.1v231.4c0,7.8,6.3,14.1,14.1,14.1
			h29.8c6.3,25,29,43.6,55.9,43.6c27,0,49.6-18.6,55.9-43.6h196.6c6.3,25,29,43.6,55.9,43.6c27,0,49.6-18.6,55.9-43.6h29.8
			c7.8,0,14.1-6.3,14.1-14.1v-83.7C507.9,232.4,482,206.5,450.2,206.5z M99.7,377.4c-16.3,0-29.5-13.2-29.5-29.5
			s13.2-29.5,29.5-29.5c16.3,0,29.5,13.2,29.5,29.5C129.2,364.2,115.9,377.4,99.7,377.4z M408.1,377.4c-16.3,0-29.5-13.2-29.5-29.5
			s13.2-29.5,29.5-29.5s29.5,13.2,29.5,29.5C437.6,364.2,424.4,377.4,408.1,377.4z M464,333.8c-6.3-25-29-43.6-55.9-43.6
			c-27,0-49.6,18.6-55.9,43.6H155.6c-6.3-25-29-43.6-55.9-43.6c-27,0-49.6,18.6-55.9,43.6H28.1V130.6h330.2l47.7,96.3
			c2.4,4.8,7.3,7.8,12.6,7.8h31.5c16.3,0,29.5,13.2,29.5,29.5v69.6H464z"/>
	</g>
</g>
</svg>