<svg xmlns="http://www.w3.org/2000/svg" fill="#dee2e6" width="800" height="800" viewBox="0 0 470 470"><path d="M409.326 211.562a7.5 7.5 0 0 0-7.5-7.5H68.174c-4.143 0-7.5 3.358-7.5 7.5s3.357 7.5 7.5 7.5h333.652a7.5 7.5 0 0 0 7.5-7.5zM116.411 362.655H67.5c-4.143 0-7.5 3.358-7.5 7.5s3.357 7.5 7.5 7.5h48.911c4.143 0 7.5-3.358 7.5-7.5s-3.357-7.5-7.5-7.5zM313.589 362.655H156.411c-4.143 0-7.5 3.358-7.5 7.5s3.357 7.5 7.5 7.5h157.178a7.5 7.5 0 0 0 0-15zM402.5 362.655h-48.911c-4.143 0-7.5 3.358-7.5 7.5s3.357 7.5 7.5 7.5H402.5c4.143 0 7.5-3.358 7.5-7.5s-3.357-7.5-7.5-7.5zM296.304 299.978l-7.914 21.131H181.61l-7.914-21.131a7.5 7.5 0 0 0-14.047 5.261l9.738 26a7.5 7.5 0 0 0 7.023 4.869h117.178a7.498 7.498 0 0 0 7.023-4.869l9.738-26a7.5 7.5 0 0 0-4.393-9.654 7.496 7.496 0 0 0-9.652 4.393z"/><path d="M462.5 154.062a7.5 7.5 0 0 0-7.5 7.5v42.5h-16.431L413.401 86.019a2.44 2.44 0 0 0-.016-.073l-12.889-60.449C397.45 11.2 383.611 0 368.992 0H101.008C86.39 0 72.551 11.199 69.502 25.497L56.61 85.963 31.431 204.062H15v-42.5c0-4.142-3.357-7.5-7.5-7.5s-7.5 3.358-7.5 7.5v50a7.5 7.5 0 0 0 7.5 7.5H30V390.2c0 12.563 8.472 23.178 20 26.452V462.5a7.5 7.5 0 0 0 7.5 7.5h68.911a7.5 7.5 0 0 0 7.5-7.5v-22.25c0-4.142-3.357-7.5-7.5-7.5s-7.5 3.358-7.5 7.5V455H65v-37.3h340V455h-53.911v-14.75c0-4.142-3.357-7.5-7.5-7.5s-7.5 3.358-7.5 7.5v22.25a7.5 7.5 0 0 0 7.5 7.5H412.5a7.5 7.5 0 0 0 7.5-7.5v-45.848c11.528-3.274 20-13.889 20-26.452V219.062h22.5a7.5 7.5 0 0 0 7.5-7.5v-50c0-4.143-3.357-7.5-7.5-7.5zM84.172 28.625C85.72 21.367 93.587 15 101.008 15h267.984c7.421 0 15.288 6.366 16.835 13.625L396.781 80H73.218l10.954-51.375zM412.5 402.7h-355c-6.893 0-12.5-5.607-12.5-12.5v-54.091h91.411a7.501 7.501 0 0 0 7.023-10.131l-9.738-26c-3.975-10.607-15.959-18.916-27.285-18.916H72.5c-4.143 0-7.5 3.358-7.5 7.5s3.357 7.5 7.5 7.5h33.911c5.129 0 11.438 4.375 13.238 9.178l5.943 15.869H45V212.352L70.02 95h329.959L425 212.352v108.756h-80.593l5.943-15.869c1.8-4.804 8.109-9.178 13.238-9.178H397.5c4.143 0 7.5-3.358 7.5-7.5s-3.357-7.5-7.5-7.5h-33.911c-11.326 0-23.311 8.309-27.285 18.916l-9.738 26a7.501 7.501 0 0 0 7.023 10.131H425V390.2c0 6.892-5.607 12.5-12.5 12.5z"/></svg>